<svg id="SvgjsSvg1006" width="1497.203125" height="1354" xmlns="http://www.w3.org/2000/svg" version="1.1" xmlns:xlink="http://www.w3.org/1999/xlink" xmlns:svgjs="http://svgjs.com/svgjs"><defs id="SvgjsDefs1007"><marker id="SvgjsMarker1022" markerWidth="16" markerHeight="12" refX="16" refY="6" viewBox="0 0 16 12" orient="auto" markerUnits="userSpaceOnUse"><path id="SvgjsPath1023" d="M0,2 L14,6 L0,11 L0,2" fill="#323232" stroke="#323232" stroke-width="2"></path></marker><marker id="SvgjsMarker1036" markerWidth="16" markerHeight="12" refX="16" refY="6" viewBox="0 0 16 12" orient="auto" markerUnits="userSpaceOnUse"><path id="SvgjsPath1037" d="M0,2 L14,6 L0,11 L0,2" fill="#323232" stroke="#323232" stroke-width="2"></path></marker><marker id="SvgjsMarker1050" markerWidth="16" markerHeight="12" refX="16" refY="6" viewBox="0 0 16 12" orient="auto" markerUnits="userSpaceOnUse"><path id="SvgjsPath1051" d="M0,2 L14,6 L0,11 L0,2" fill="#323232" stroke="#323232" stroke-width="2"></path></marker><marker id="SvgjsMarker1058" markerWidth="16" markerHeight="12" refX="16" refY="6" viewBox="0 0 16 12" orient="auto" markerUnits="userSpaceOnUse"><path id="SvgjsPath1059" d="M0,2 L14,6 L0,11 L0,2" fill="#323232" stroke="#323232" stroke-width="2"></path></marker><marker id="SvgjsMarker1068" markerWidth="16" markerHeight="12" refX="16" refY="6" viewBox="0 0 16 12" orient="auto" markerUnits="userSpaceOnUse"><path id="SvgjsPath1069" d="M0,2 L14,6 L0,11 L0,2" fill="#323232" stroke="#323232" stroke-width="2"></path></marker><marker id="SvgjsMarker1072" markerWidth="16" markerHeight="12" refX="16" refY="6" viewBox="0 0 16 12" orient="auto" markerUnits="userSpaceOnUse"><path id="SvgjsPath1073" d="M0,2 L14,6 L0,11 L0,2" fill="#323232" stroke="#323232" stroke-width="2"></path></marker><marker id="SvgjsMarker1086" markerWidth="16" markerHeight="12" refX="16" refY="6" viewBox="0 0 16 12" orient="auto" markerUnits="userSpaceOnUse"><path id="SvgjsPath1087" d="M0,2 L14,6 L0,11 L0,2" fill="#323232" stroke="#323232" stroke-width="2"></path></marker><marker id="SvgjsMarker1100" markerWidth="16" markerHeight="12" refX="16" refY="6" viewBox="0 0 16 12" orient="auto" markerUnits="userSpaceOnUse"><path id="SvgjsPath1101" d="M0,2 L14,6 L0,11 L0,2" fill="#323232" stroke="#323232" stroke-width="2"></path></marker><marker id="SvgjsMarker1104" markerWidth="16" markerHeight="12" refX="16" refY="6" viewBox="0 0 16 12" orient="auto" markerUnits="userSpaceOnUse"><path id="SvgjsPath1105" d="M0,2 L14,6 L0,11 L0,2" fill="#323232" stroke="#323232" stroke-width="2"></path></marker><marker id="SvgjsMarker1118" markerWidth="16" markerHeight="12" refX="16" refY="6" viewBox="0 0 16 12" orient="auto" markerUnits="userSpaceOnUse"><path id="SvgjsPath1119" d="M0,2 L14,6 L0,11 L0,2" fill="#323232" stroke="#323232" stroke-width="2"></path></marker><marker id="SvgjsMarker1132" markerWidth="16" markerHeight="12" refX="16" refY="6" viewBox="0 0 16 12" orient="auto" markerUnits="userSpaceOnUse"><path id="SvgjsPath1133" d="M0,2 L14,6 L0,11 L0,2" fill="#323232" stroke="#323232" stroke-width="2"></path></marker><marker id="SvgjsMarker1136" markerWidth="16" markerHeight="12" refX="16" refY="6" viewBox="0 0 16 12" orient="auto" markerUnits="userSpaceOnUse"><path id="SvgjsPath1137" d="M0,2 L14,6 L0,11 L0,2" fill="#323232" stroke="#323232" stroke-width="2"></path></marker><marker id="SvgjsMarker1150" markerWidth="16" markerHeight="12" refX="16" refY="6" viewBox="0 0 16 12" orient="auto" markerUnits="userSpaceOnUse"><path id="SvgjsPath1151" d="M0,2 L14,6 L0,11 L0,2" fill="#323232" stroke="#323232" stroke-width="2"></path></marker><marker id="SvgjsMarker1164" markerWidth="16" markerHeight="12" refX="16" refY="6" viewBox="0 0 16 12" orient="auto" markerUnits="userSpaceOnUse"><path id="SvgjsPath1165" d="M0,2 L14,6 L0,11 L0,2" fill="#323232" stroke="#323232" stroke-width="2"></path></marker><marker id="SvgjsMarker1168" markerWidth="16" markerHeight="12" refX="16" refY="6" viewBox="0 0 16 12" orient="auto" markerUnits="userSpaceOnUse"><path id="SvgjsPath1169" d="M0,2 L14,6 L0,11 L0,2" fill="#323232" stroke="#323232" stroke-width="2"></path></marker><marker id="SvgjsMarker1182" markerWidth="16" markerHeight="12" refX="16" refY="6" viewBox="0 0 16 12" orient="auto" markerUnits="userSpaceOnUse"><path id="SvgjsPath1183" d="M0,2 L14,6 L0,11 L0,2" fill="#323232" stroke="#323232" stroke-width="2"></path></marker><marker id="SvgjsMarker1190" markerWidth="16" markerHeight="12" refX="16" refY="6" viewBox="0 0 16 12" orient="auto" markerUnits="userSpaceOnUse"><path id="SvgjsPath1191" d="M0,2 L14,6 L0,11 L0,2" fill="#323232" stroke="#323232" stroke-width="2"></path></marker><marker id="SvgjsMarker1204" markerWidth="16" markerHeight="12" refX="16" refY="6" viewBox="0 0 16 12" orient="auto" markerUnits="userSpaceOnUse"><path id="SvgjsPath1205" d="M0,2 L14,6 L0,11 L0,2" fill="#323232" stroke="#323232" stroke-width="2"></path></marker></defs><g id="SvgjsG1008" transform="translate(332.203125,25)"><path id="SvgjsPath1009" d="M 0 0L 83 0L 83 32L 0 32Z" stroke="#323232" stroke-width="2" fill-opacity="1" fill="#ffffff"></path><g id="SvgjsG1010"><text id="SvgjsText1011" font-family="微软雅黑" text-anchor="middle" font-size="13px" width="26" fill="#323232" font-weight="400" align="middle" anchor="middle" family="微软雅黑" size="13px" weight="400" font-style="" y="6.05" transform="rotate(0)"><tspan id="SvgjsTspan1012" dy="16" x="41.5"><tspan id="SvgjsTspan1013" style="text-decoration:;">启动</tspan></tspan></text></g></g><g id="SvgjsG1014" transform="translate(55.0078125,163)"><path id="SvgjsPath1015" d="M 0 0L 637.390625 0L 637.390625 22L 0 22Z" stroke="#323232" stroke-width="2" fill-opacity="1" fill="#ffffff"></path><g id="SvgjsG1016"><text id="SvgjsText1017" font-family="微软雅黑" text-anchor="middle" font-size="13px" width="577" fill="#323232" font-weight="400" align="middle" anchor="middle" family="微软雅黑" size="13px" weight="400" font-style="" y="1.05" transform="rotate(0)"><tspan id="SvgjsTspan1018" dy="16" x="319"><tspan id="SvgjsTspan1019" style="text-decoration:;">判断:SQ1=0&amp;&amp;SQ2=0SQ3=0&amp;&amp;SQ4=1&amp;&amp;M1=0&amp;&amp;M2=0&amp;&amp;炉门=0&amp;&amp;推料机=0&amp;&amp;停止=0</tspan></tspan></text></g></g><g id="SvgjsG1020"><path id="SvgjsPath1021" d="M373.703125 57L373.703125 110L373.703125 110L373.703125 163" stroke="#323232" stroke-width="2" fill="none" marker-end="url(#SvgjsMarker1022)"></path><rect id="SvgjsRect1024" width="26" height="16" x="360.703125" y="102" fill="#ffffff"></rect><text id="SvgjsText1025" font-family="微软雅黑" text-anchor="middle" font-size="13px" width="26" fill="#323232" font-weight="400" align="top" anchor="middle" family="微软雅黑" size="13px" weight="400" font-style="" y="100.05" transform="rotate(0)"><tspan id="SvgjsTspan1026" dy="16" x="373.703125"><tspan id="SvgjsTspan1027" style="text-decoration:;">自检</tspan></tspan></text></g><g id="SvgjsG1028" transform="translate(326.203125,294)"><path id="SvgjsPath1029" d="M 0 0L 95 0L 95 28L 0 28Z" stroke="#323232" stroke-width="2" fill-opacity="1" fill="#ffffff"></path><g id="SvgjsG1030"><text id="SvgjsText1031" font-family="微软雅黑" text-anchor="middle" font-size="13px" width="38" fill="#323232" font-weight="400" align="middle" anchor="middle" family="微软雅黑" size="13px" weight="400" font-style="" y="4.05" transform="rotate(0)"><tspan id="SvgjsTspan1032" dy="16" x="47.5"><tspan id="SvgjsTspan1033" style="text-decoration:;">M1=1</tspan></tspan></text></g></g><g id="SvgjsG1034"><path id="SvgjsPath1035" d="M373.703125 185L373.703125 239.5L373.703125 239.5L373.703125 294" stroke="#323232" stroke-width="2" fill="none" marker-end="url(#SvgjsMarker1036)"></path><rect id="SvgjsRect1038" width="13" height="16" x="367.203125" y="231.5" fill="#ffffff"></rect><text id="SvgjsText1039" font-family="微软雅黑" text-anchor="middle" font-size="13px" width="13" fill="#323232" font-weight="400" align="top" anchor="middle" family="微软雅黑" size="13px" weight="400" font-style="" y="229.55" transform="rotate(0)"><tspan id="SvgjsTspan1040" dy="16" x="373.703125"><tspan id="SvgjsTspan1041" style="text-decoration:;">是</tspan></tspan></text></g><g id="SvgjsG1042" transform="translate(849.203125,160)"><path id="SvgjsPath1043" d="M 0 0L 543 0L 543 28L 0 28Z" stroke="#323232" stroke-width="2" fill-opacity="1" fill="#ffffff"></path><g id="SvgjsG1044"><text id="SvgjsText1045" font-family="微软雅黑" text-anchor="middle" font-size="13px" width="518" fill="#323232" font-weight="400" align="middle" anchor="middle" family="微软雅黑" size="13px" weight="400" font-style="" y="4.05" transform="rotate(0)"><tspan id="SvgjsTspan1046" dy="16" x="271.5"><tspan id="SvgjsTspan1047" style="text-decoration:;">使SQ1=0&amp;&amp;SQ3=0&amp;&amp;SQ4=1&amp;&amp;M1=0&amp;&amp;M2=0&amp;&amp;炉门=0&amp;&amp;推料机=0&amp;&amp;停止=0</tspan></tspan></text></g></g><g id="SvgjsG1048"><path id="SvgjsPath1049" d="M692.3984375 174L770.80078125 174L770.80078125 174L849.203125 174" stroke="#323232" stroke-width="2" fill="none" marker-end="url(#SvgjsMarker1050)"></path><rect id="SvgjsRect1052" width="13" height="16" x="764.30078125" y="166" fill="#ffffff"></rect><text id="SvgjsText1053" font-family="微软雅黑" text-anchor="middle" font-size="13px" width="13" fill="#323232" font-weight="400" align="top" anchor="middle" family="微软雅黑" size="13px" weight="400" font-style="" y="164.05" transform="rotate(0)"><tspan id="SvgjsTspan1054" dy="16" x="770.80078125"><tspan id="SvgjsTspan1055" style="text-decoration:;">否</tspan></tspan></text></g><g id="SvgjsG1056"><path id="SvgjsPath1057" d="M1120.703125 188L1120.703125 308L421.203125 308" stroke="#323232" stroke-width="2" fill="none" marker-end="url(#SvgjsMarker1058)"></path></g><g id="SvgjsG1060" transform="translate(326.203125,386)"><path id="SvgjsPath1061" d="M 0 0L 95 0L 95 31L 0 31Z" stroke="#323232" stroke-width="2" fill-opacity="1" fill="#ffffff"></path><g id="SvgjsG1062"><text id="SvgjsText1063" font-family="微软雅黑" text-anchor="middle" font-size="13px" width="72" fill="#323232" font-weight="400" align="middle" anchor="middle" family="微软雅黑" size="13px" weight="400" font-style="" y="5.55" transform="rotate(0)"><tspan id="SvgjsTspan1064" dy="16" x="47.5"><tspan id="SvgjsTspan1065" style="text-decoration:;">判断:炉门=1</tspan></tspan></text></g></g><g id="SvgjsG1066"><path id="SvgjsPath1067" d="M373.703125 322L373.703125 354L373.703125 354L373.703125 386" stroke="#323232" stroke-width="2" fill="none" marker-end="url(#SvgjsMarker1068)"></path></g><g id="SvgjsG1070"><path id="SvgjsPath1071" d="M326.203125 401.5L260.203125 401.5L260.203125 308L326.203125 308" stroke="#323232" stroke-width="2" fill="none" marker-end="url(#SvgjsMarker1072)"></path><rect id="SvgjsRect1074" width="13" height="16" x="253.703125" y="346.75" fill="#ffffff"></rect><text id="SvgjsText1075" font-family="微软雅黑" text-anchor="middle" font-size="13px" width="13" fill="#323232" font-weight="400" align="top" anchor="middle" family="微软雅黑" size="13px" weight="400" font-style="" y="344.8" transform="rotate(0)"><tspan id="SvgjsTspan1076" dy="16" x="260.203125"><tspan id="SvgjsTspan1077" style="text-decoration:;">否</tspan></tspan></text></g><g id="SvgjsG1078" transform="translate(276.953125,497)"><path id="SvgjsPath1079" d="M 0 0L 193.5 0L 193.5 20L 0 20Z" stroke="#323232" stroke-width="2" fill-opacity="1" fill="#ffffff"></path><g id="SvgjsG1080"><text id="SvgjsText1081" font-family="微软雅黑" text-anchor="middle" font-size="13px" width="163" fill="#323232" font-weight="400" align="middle" anchor="middle" family="微软雅黑" size="13px" weight="400" font-style="" y="0.050000000000000044" transform="rotate(0)"><tspan id="SvgjsTspan1082" dy="16" x="97"><tspan id="SvgjsTspan1083" style="text-decoration:;">M1=0&amp;&amp;M2=1&amp;&amp;SQ1=1</tspan></tspan></text></g></g><g id="SvgjsG1084"><path id="SvgjsPath1085" d="M373.703125 417L373.703125 457L373.703125 457L373.703125 497" stroke="#323232" stroke-width="2" fill="none" marker-end="url(#SvgjsMarker1086)"></path><rect id="SvgjsRect1088" width="13" height="16" x="367.203125" y="449" fill="#ffffff"></rect><text id="SvgjsText1089" font-family="微软雅黑" text-anchor="middle" font-size="13px" width="13" fill="#323232" font-weight="400" align="top" anchor="middle" family="微软雅黑" size="13px" weight="400" font-style="" y="447.05" transform="rotate(0)"><tspan id="SvgjsTspan1090" dy="16" x="373.703125"><tspan id="SvgjsTspan1091" style="text-decoration:;">是</tspan></tspan></text></g><g id="SvgjsG1092" transform="translate(315.203125,580)"><path id="SvgjsPath1093" d="M 0 0L 117 0L 117 30L 0 30Z" stroke="#323232" stroke-width="2" fill-opacity="1" fill="#ffffff"></path><g id="SvgjsG1094"><text id="SvgjsText1095" font-family="微软雅黑" text-anchor="middle" font-size="13px" width="85" fill="#323232" font-weight="400" align="middle" anchor="middle" family="微软雅黑" size="13px" weight="400" font-style="" y="5.05" transform="rotate(0)"><tspan id="SvgjsTspan1096" dy="16" x="58.5"><tspan id="SvgjsTspan1097" style="text-decoration:;">判断:推料机=1</tspan></tspan></text></g></g><g id="SvgjsG1098"><path id="SvgjsPath1099" d="M373.703125 517L373.703125 548.5L373.703125 548.5L373.703125 580" stroke="#323232" stroke-width="2" fill="none" marker-end="url(#SvgjsMarker1100)"></path></g><g id="SvgjsG1102"><path id="SvgjsPath1103" d="M315.203125 595L246.953125 595L246.953125 507L276.953125 507" stroke="#323232" stroke-width="2" fill="none" marker-end="url(#SvgjsMarker1104)"></path><rect id="SvgjsRect1106" width="13" height="16" x="240.453125" y="562.125" fill="#ffffff"></rect><text id="SvgjsText1107" font-family="微软雅黑" text-anchor="middle" font-size="13px" width="13" fill="#323232" font-weight="400" align="top" anchor="middle" family="微软雅黑" size="13px" weight="400" font-style="" y="560.175" transform="rotate(0)"><tspan id="SvgjsTspan1108" dy="16" x="246.953125"><tspan id="SvgjsTspan1109" style="text-decoration:;">否</tspan></tspan></text></g><g id="SvgjsG1110" transform="translate(269.703125,702)"><path id="SvgjsPath1111" d="M 0 0L 208 0L 208 22L 0 22Z" stroke="#323232" stroke-width="2" fill-opacity="1" fill="#ffffff"></path><g id="SvgjsG1112"><text id="SvgjsText1113" font-family="微软雅黑" text-anchor="middle" font-size="13px" width="174" fill="#323232" font-weight="400" align="middle" anchor="middle" family="微软雅黑" size="13px" weight="400" font-style="" y="1.05" transform="rotate(0)"><tspan id="SvgjsTspan1114" dy="16" x="104"><tspan id="SvgjsTspan1115" style="text-decoration:;">SQ1=0&amp;&amp;SQ2=1&amp;&amp;M2=-1</tspan></tspan></text></g></g><g id="SvgjsG1116"><path id="SvgjsPath1117" d="M373.703125 610L373.703125 656L373.703125 656L373.703125 702" stroke="#323232" stroke-width="2" fill="none" marker-end="url(#SvgjsMarker1118)"></path><rect id="SvgjsRect1120" width="13" height="16" x="367.203125" y="648" fill="#ffffff"></rect><text id="SvgjsText1121" font-family="微软雅黑" text-anchor="middle" font-size="13px" width="13" fill="#323232" font-weight="400" align="top" anchor="middle" family="微软雅黑" size="13px" weight="400" font-style="" y="646.05" transform="rotate(0)"><tspan id="SvgjsTspan1122" dy="16" x="373.703125"><tspan id="SvgjsTspan1123" style="text-decoration:;">是</tspan></tspan></text></g><g id="SvgjsG1124" transform="translate(315.203125,789)"><path id="SvgjsPath1125" d="M 0 0L 117 0L 117 30L 0 30Z" stroke="#323232" stroke-width="2" fill-opacity="1" fill="#ffffff"></path><g id="SvgjsG1126"><text id="SvgjsText1127" font-family="微软雅黑" text-anchor="middle" font-size="13px" width="85" fill="#323232" font-weight="400" align="middle" anchor="middle" family="微软雅黑" size="13px" weight="400" font-style="" y="5.05" transform="rotate(0)"><tspan id="SvgjsTspan1128" dy="16" x="58.5"><tspan id="SvgjsTspan1129" style="text-decoration:;">判断:推料机=0</tspan></tspan></text></g></g><g id="SvgjsG1130"><path id="SvgjsPath1131" d="M373.703125 724L373.703125 756.5L373.703125 756.5L373.703125 789" stroke="#323232" stroke-width="2" fill="none" marker-end="url(#SvgjsMarker1132)"></path></g><g id="SvgjsG1134"><path id="SvgjsPath1135" d="M315.203125 804L239.703125 804L239.703125 713L269.703125 713" stroke="#323232" stroke-width="2" fill="none" marker-end="url(#SvgjsMarker1136)"></path><rect id="SvgjsRect1138" width="13" height="16" x="233.203125" y="773.25" fill="#ffffff"></rect><text id="SvgjsText1139" font-family="微软雅黑" text-anchor="middle" font-size="13px" width="13" fill="#323232" font-weight="400" align="top" anchor="middle" family="微软雅黑" size="13px" weight="400" font-style="" y="771.3" transform="rotate(0)"><tspan id="SvgjsTspan1140" dy="16" x="239.703125"><tspan id="SvgjsTspan1141" style="text-decoration:;">否</tspan></tspan></text></g><g id="SvgjsG1142" transform="translate(197.203125,909)"><path id="SvgjsPath1143" d="M 0 0L 353 0L 353 20L 0 20Z" stroke="#323232" stroke-width="2" fill-opacity="1" fill="#ffffff"></path><g id="SvgjsG1144"><text id="SvgjsText1145" font-family="微软雅黑" text-anchor="middle" font-size="13px" width="300" fill="#323232" font-weight="400" align="middle" anchor="middle" family="微软雅黑" size="13px" weight="400" font-style="" y="0.050000000000000044" transform="rotate(0)"><tspan id="SvgjsTspan1146" dy="16" x="176.5"><tspan id="SvgjsTspan1147" style="text-decoration:;">SQ1=0&amp;&amp;SQ2=0&amp;&amp;SQ3=1&amp;&amp;M2=0&amp;&amp;M1=-1</tspan></tspan></text></g></g><g id="SvgjsG1148"><path id="SvgjsPath1149" d="M373.703125 819L373.703125 864L373.703125 864L373.703125 909" stroke="#323232" stroke-width="2" fill="none" marker-end="url(#SvgjsMarker1150)"></path><rect id="SvgjsRect1152" width="13" height="16" x="367.203125" y="856" fill="#ffffff"></rect><text id="SvgjsText1153" font-family="微软雅黑" text-anchor="middle" font-size="13px" width="13" fill="#323232" font-weight="400" align="top" anchor="middle" family="微软雅黑" size="13px" weight="400" font-style="" y="854.05" transform="rotate(0)"><tspan id="SvgjsTspan1154" dy="16" x="373.703125"><tspan id="SvgjsTspan1155" style="text-decoration:;">是</tspan></tspan></text></g><g id="SvgjsG1156" transform="translate(326.203125,1029)"><path id="SvgjsPath1157" d="M 0 0L 95 0L 95 31L 0 31Z" stroke="#323232" stroke-width="2" fill-opacity="1" fill="#ffffff"></path><g id="SvgjsG1158"><text id="SvgjsText1159" font-family="微软雅黑" text-anchor="middle" font-size="13px" width="72" fill="#323232" font-weight="400" align="middle" anchor="middle" family="微软雅黑" size="13px" weight="400" font-style="" y="5.55" transform="rotate(0)"><tspan id="SvgjsTspan1160" dy="16" x="47.5"><tspan id="SvgjsTspan1161" style="text-decoration:;">判断:炉门=0</tspan></tspan></text></g></g><g id="SvgjsG1162"><path id="SvgjsPath1163" d="M373.703125 929L373.703125 979L373.703125 979L373.703125 1029" stroke="#323232" stroke-width="2" fill="none" marker-end="url(#SvgjsMarker1164)"></path></g><g id="SvgjsG1166"><path id="SvgjsPath1167" d="M326.203125 1044.5L167.203125 1044.5L167.203125 919L197.203125 919" stroke="#323232" stroke-width="2" fill="none" marker-end="url(#SvgjsMarker1168)"></path><rect id="SvgjsRect1170" width="13" height="16" x="162.45312500000003" y="1036.5" fill="#ffffff"></rect><text id="SvgjsText1171" font-family="微软雅黑" text-anchor="middle" font-size="13px" width="13" fill="#323232" font-weight="400" align="top" anchor="middle" family="微软雅黑" size="13px" weight="400" font-style="" y="1034.55" transform="rotate(0)"><tspan id="SvgjsTspan1172" dy="16" x="168.95312500000003"><tspan id="SvgjsTspan1173" style="text-decoration:;">否</tspan></tspan></text></g><g id="SvgjsG1174" transform="translate(315.203125,1146)"><path id="SvgjsPath1175" d="M 0 0L 117 0L 117 30L 0 30Z" stroke="#323232" stroke-width="2" fill-opacity="1" fill="#ffffff"></path><g id="SvgjsG1176"><text id="SvgjsText1177" font-family="微软雅黑" text-anchor="middle" font-size="13px" width="72" fill="#323232" font-weight="400" align="middle" anchor="middle" family="微软雅黑" size="13px" weight="400" font-style="" y="5.05" transform="rotate(0)"><tspan id="SvgjsTspan1178" dy="16" x="58.5"><tspan id="SvgjsTspan1179" style="text-decoration:;">判断:停止=0</tspan></tspan></text></g></g><g id="SvgjsG1180"><path id="SvgjsPath1181" d="M373.703125 1060L373.703125 1103L373.703125 1103L373.703125 1146" stroke="#323232" stroke-width="2" fill="none" marker-end="url(#SvgjsMarker1182)"></path><rect id="SvgjsRect1184" width="13" height="16" x="367.203125" y="1095" fill="#ffffff"></rect><text id="SvgjsText1185" font-family="微软雅黑" text-anchor="middle" font-size="13px" width="13" fill="#323232" font-weight="400" align="top" anchor="middle" family="微软雅黑" size="13px" weight="400" font-style="" y="1093.05" transform="rotate(0)"><tspan id="SvgjsTspan1186" dy="16" x="373.703125"><tspan id="SvgjsTspan1187" style="text-decoration:;">是</tspan></tspan></text></g><g id="SvgjsG1188"><path id="SvgjsPath1189" d="M315.203125 1161L25.0078125 1161L25.0078125 174L55.0078125 174" stroke="#323232" stroke-width="2" fill="none" marker-end="url(#SvgjsMarker1190)"></path><rect id="SvgjsRect1192" width="13" height="16" x="18.5078125" y="789.5976562500001" fill="#ffffff"></rect><text id="SvgjsText1193" font-family="微软雅黑" text-anchor="middle" font-size="13px" width="13" fill="#323232" font-weight="400" align="top" anchor="middle" family="微软雅黑" size="13px" weight="400" font-style="" y="787.6476562500001" transform="rotate(0)"><tspan id="SvgjsTspan1194" dy="16" x="25.0078125"><tspan id="SvgjsTspan1195" style="text-decoration:;">是</tspan></tspan></text></g><g id="SvgjsG1196" transform="translate(102.203125,1301)"><path id="SvgjsPath1197" d="M 0 0L 543 0L 543 28L 0 28Z" stroke="#323232" stroke-width="2" fill-opacity="1" fill="#ffffff"></path><g id="SvgjsG1198"><text id="SvgjsText1199" font-family="微软雅黑" text-anchor="middle" font-size="13px" width="518" fill="#323232" font-weight="400" align="middle" anchor="middle" family="微软雅黑" size="13px" weight="400" font-style="" y="4.05" transform="rotate(0)"><tspan id="SvgjsTspan1200" dy="16" x="271.5"><tspan id="SvgjsTspan1201" style="text-decoration:;">使SQ1=0&amp;&amp;SQ3=0&amp;&amp;SQ4=1&amp;&amp;M1=0&amp;&amp;M2=0&amp;&amp;炉门=0&amp;&amp;推料机=0&amp;&amp;停止=0</tspan></tspan></text></g></g><g id="SvgjsG1202"><path id="SvgjsPath1203" d="M373.703125 1176L373.703125 1238.5L373.703125 1238.5L373.703125 1301" stroke="#323232" stroke-width="2" fill="none" marker-end="url(#SvgjsMarker1204)"></path><rect id="SvgjsRect1206" width="13" height="16" x="367.203125" y="1230.5" fill="#ffffff"></rect><text id="SvgjsText1207" font-family="微软雅黑" text-anchor="middle" font-size="13px" width="13" fill="#323232" font-weight="400" align="top" anchor="middle" family="微软雅黑" size="13px" weight="400" font-style="" y="1228.55" transform="rotate(0)"><tspan id="SvgjsTspan1208" dy="16" x="373.703125"><tspan id="SvgjsTspan1209" style="text-decoration:;">否</tspan></tspan></text></g><g id="SvgjsG1210" transform="translate(929.203125,240)"><path id="SvgjsPath1211" d="M 0 0L 543 0L 543 28L 0 28Z" stroke="#323232" stroke-width="2" fill-opacity="1" fill="#ffffff"></path><g id="SvgjsG1212"><text id="SvgjsText1213" font-family="微软雅黑" text-anchor="middle" font-size="13px" width="518" fill="#323232" font-weight="400" align="middle" anchor="middle" family="微软雅黑" size="13px" weight="400" font-style="" y="4.05" transform="rotate(0)"><tspan id="SvgjsTspan1214" dy="16" x="271.5"><tspan id="SvgjsTspan1215" style="text-decoration:;">使SQ1=0&amp;&amp;SQ3=0&amp;&amp;SQ4=1&amp;&amp;M1=0&amp;&amp;M2=0&amp;&amp;炉门=0&amp;&amp;推料机=0&amp;&amp;停止=0</tspan></tspan></text></g></g></svg>