<svg id="SvgjsSvg1006" width="710.96875" height="1232" xmlns="http://www.w3.org/2000/svg" version="1.1" xmlns:xlink="http://www.w3.org/1999/xlink" xmlns:svgjs="http://svgjs.com/svgjs"><defs id="SvgjsDefs1007"><marker id="SvgjsMarker1028" markerWidth="16" markerHeight="12" refX="16" refY="6" viewBox="0 0 16 12" orient="auto" markerUnits="userSpaceOnUse"><path id="SvgjsPath1029" d="M0,2 L14,6 L0,11 L0,2" fill="#323232" stroke="#323232" stroke-width="2"></path></marker><marker id="SvgjsMarker1042" markerWidth="16" markerHeight="12" refX="16" refY="6" viewBox="0 0 16 12" orient="auto" markerUnits="userSpaceOnUse"><path id="SvgjsPath1043" d="M0,2 L14,6 L0,11 L0,2" fill="#323232" stroke="#323232" stroke-width="2"></path></marker><marker id="SvgjsMarker1056" markerWidth="16" markerHeight="12" refX="16" refY="6" viewBox="0 0 16 12" orient="auto" markerUnits="userSpaceOnUse"><path id="SvgjsPath1057" d="M0,2 L14,6 L0,11 L0,2" fill="#323232" stroke="#323232" stroke-width="2"></path></marker><marker id="SvgjsMarker1070" markerWidth="16" markerHeight="12" refX="16" refY="6" viewBox="0 0 16 12" orient="auto" markerUnits="userSpaceOnUse"><path id="SvgjsPath1071" d="M0,2 L14,6 L0,11 L0,2" fill="#323232" stroke="#323232" stroke-width="2"></path></marker><marker id="SvgjsMarker1084" markerWidth="16" markerHeight="12" refX="16" refY="6" viewBox="0 0 16 12" orient="auto" markerUnits="userSpaceOnUse"><path id="SvgjsPath1085" d="M0,2 L14,6 L0,11 L0,2" fill="#323232" stroke="#323232" stroke-width="2"></path></marker><marker id="SvgjsMarker1098" markerWidth="16" markerHeight="12" refX="16" refY="6" viewBox="0 0 16 12" orient="auto" markerUnits="userSpaceOnUse"><path id="SvgjsPath1099" d="M0,2 L14,6 L0,11 L0,2" fill="#323232" stroke="#323232" stroke-width="2"></path></marker><marker id="SvgjsMarker1113" markerWidth="16" markerHeight="12" refX="16" refY="6" viewBox="0 0 16 12" orient="auto" markerUnits="userSpaceOnUse"><path id="SvgjsPath1114" d="M0,2 L14,6 L0,11 L0,2" fill="#323232" stroke="#323232" stroke-width="2"></path></marker><marker id="SvgjsMarker1133" markerWidth="16" markerHeight="12" refX="16" refY="6" viewBox="0 0 16 12" orient="auto" markerUnits="userSpaceOnUse"><path id="SvgjsPath1134" d="M0,2 L14,6 L0,11 L0,2" fill="#323232" stroke="#323232" stroke-width="2"></path></marker><marker id="SvgjsMarker1141" markerWidth="16" markerHeight="12" refX="16" refY="6" viewBox="0 0 16 12" orient="auto" markerUnits="userSpaceOnUse"><path id="SvgjsPath1142" d="M0,2 L14,6 L0,11 L0,2" fill="#323232" stroke="#323232" stroke-width="2"></path></marker><marker id="SvgjsMarker1151" markerWidth="16" markerHeight="12" refX="16" refY="6" viewBox="0 0 16 12" orient="auto" markerUnits="userSpaceOnUse"><path id="SvgjsPath1152" d="M0,2 L14,6 L0,11 L0,2" fill="#323232" stroke="#323232" stroke-width="2"></path></marker><marker id="SvgjsMarker1165" markerWidth="16" markerHeight="12" refX="16" refY="6" viewBox="0 0 16 12" orient="auto" markerUnits="userSpaceOnUse"><path id="SvgjsPath1166" d="M0,2 L14,6 L0,11 L0,2" fill="#323232" stroke="#323232" stroke-width="2"></path></marker><marker id="SvgjsMarker1169" markerWidth="16" markerHeight="12" refX="16" refY="6" viewBox="0 0 16 12" orient="auto" markerUnits="userSpaceOnUse"><path id="SvgjsPath1170" d="M0,2 L14,6 L0,11 L0,2" fill="#323232" stroke="#323232" stroke-width="2"></path></marker><marker id="SvgjsMarker1183" markerWidth="16" markerHeight="12" refX="16" refY="6" viewBox="0 0 16 12" orient="auto" markerUnits="userSpaceOnUse"><path id="SvgjsPath1184" d="M0,2 L14,6 L0,11 L0,2" fill="#323232" stroke="#323232" stroke-width="2"></path></marker><marker id="SvgjsMarker1187" markerWidth="16" markerHeight="12" refX="16" refY="6" viewBox="0 0 16 12" orient="auto" markerUnits="userSpaceOnUse"><path id="SvgjsPath1188" d="M0,2 L14,6 L0,11 L0,2" fill="#323232" stroke="#323232" stroke-width="2"></path></marker><marker id="SvgjsMarker1195" markerWidth="16" markerHeight="12" refX="16" refY="6" viewBox="0 0 16 12" orient="auto" markerUnits="userSpaceOnUse"><path id="SvgjsPath1196" d="M0,2 L14,6 L0,11 L0,2" fill="#323232" stroke="#323232" stroke-width="2"></path></marker><marker id="SvgjsMarker1203" markerWidth="16" markerHeight="12" refX="16" refY="6" viewBox="0 0 16 12" orient="auto" markerUnits="userSpaceOnUse"><path id="SvgjsPath1204" d="M0,2 L14,6 L0,11 L0,2" fill="#323232" stroke="#323232" stroke-width="2"></path></marker><marker id="SvgjsMarker1217" markerWidth="16" markerHeight="12" refX="16" refY="6" viewBox="0 0 16 12" orient="auto" markerUnits="userSpaceOnUse"><path id="SvgjsPath1218" d="M0,2 L14,6 L0,11 L0,2" fill="#323232" stroke="#323232" stroke-width="2"></path></marker><marker id="SvgjsMarker1221" markerWidth="16" markerHeight="12" refX="16" refY="6" viewBox="0 0 16 12" orient="auto" markerUnits="userSpaceOnUse"><path id="SvgjsPath1222" d="M0,2 L14,6 L0,11 L0,2" fill="#323232" stroke="#323232" stroke-width="2"></path></marker><marker id="SvgjsMarker1235" markerWidth="16" markerHeight="12" refX="16" refY="6" viewBox="0 0 16 12" orient="auto" markerUnits="userSpaceOnUse"><path id="SvgjsPath1236" d="M0,2 L14,6 L0,11 L0,2" fill="#323232" stroke="#323232" stroke-width="2"></path></marker><marker id="SvgjsMarker1239" markerWidth="16" markerHeight="12" refX="16" refY="6" viewBox="0 0 16 12" orient="auto" markerUnits="userSpaceOnUse"><path id="SvgjsPath1240" d="M0,2 L14,6 L0,11 L0,2" fill="#323232" stroke="#323232" stroke-width="2"></path></marker><marker id="SvgjsMarker1247" markerWidth="16" markerHeight="12" refX="16" refY="6" viewBox="0 0 16 12" orient="auto" markerUnits="userSpaceOnUse"><path id="SvgjsPath1248" d="M0,2 L14,6 L0,11 L0,2" fill="#323232" stroke="#323232" stroke-width="2"></path></marker><marker id="SvgjsMarker1255" markerWidth="16" markerHeight="12" refX="16" refY="6" viewBox="0 0 16 12" orient="auto" markerUnits="userSpaceOnUse"><path id="SvgjsPath1256" d="M0,2 L14,6 L0,11 L0,2" fill="#323232" stroke="#323232" stroke-width="2"></path></marker><marker id="SvgjsMarker1263" markerWidth="16" markerHeight="12" refX="16" refY="6" viewBox="0 0 16 12" orient="auto" markerUnits="userSpaceOnUse"><path id="SvgjsPath1264" d="M0,2 L14,6 L0,11 L0,2" fill="#323232" stroke="#323232" stroke-width="2"></path></marker><marker id="SvgjsMarker1271" markerWidth="16" markerHeight="12" refX="16" refY="6" viewBox="0 0 16 12" orient="auto" markerUnits="userSpaceOnUse"><path id="SvgjsPath1272" d="M0,2 L14,6 L0,11 L0,2" fill="#323232" stroke="#323232" stroke-width="2"></path></marker><marker id="SvgjsMarker1279" markerWidth="16" markerHeight="12" refX="16" refY="6" viewBox="0 0 16 12" orient="auto" markerUnits="userSpaceOnUse"><path id="SvgjsPath1280" d="M0,2 L14,6 L0,11 L0,2" fill="#323232" stroke="#323232" stroke-width="2"></path></marker><marker id="SvgjsMarker1293" markerWidth="16" markerHeight="12" refX="16" refY="6" viewBox="0 0 16 12" orient="auto" markerUnits="userSpaceOnUse"><path id="SvgjsPath1294" d="M0,2 L14,6 L0,11 L0,2" fill="#323232" stroke="#323232" stroke-width="2"></path></marker><marker id="SvgjsMarker1297" markerWidth="16" markerHeight="12" refX="16" refY="6" viewBox="0 0 16 12" orient="auto" markerUnits="userSpaceOnUse"><path id="SvgjsPath1298" d="M0,2 L14,6 L0,11 L0,2" fill="#323232" stroke="#323232" stroke-width="2"></path></marker></defs><g id="SvgjsG1008" transform="translate(243.01171875,55)"><path id="SvgjsPath1009" d="M 0 0L 176.4140625 0L 176.4140625 20L 0 20Z" stroke="#323232" stroke-width="2" fill-opacity="1" fill="#ffffff"></path><g id="SvgjsG1010"><text id="SvgjsText1011" font-family="微软雅黑" text-anchor="middle" font-size="13px" width="138" fill="#323232" font-weight="400" align="middle" anchor="middle" family="微软雅黑" size="13px" weight="400" font-style="" y="0.050000000000000044" transform="rotate(0)"><tspan id="SvgjsTspan1012" dy="16" x="88.5"><tspan id="SvgjsTspan1013" style="text-decoration:;">判断:启动=1&amp;&amp;停止=0</tspan></tspan></text></g></g><g id="SvgjsG1014" transform="translate(263.21875,217)"><path id="SvgjsPath1015" d="M 0 0L 136 0L 136 25L 0 25Z" stroke="#323232" stroke-width="2" fill-opacity="1" fill="#ffffff"></path><g id="SvgjsG1016"><text id="SvgjsText1017" font-family="微软雅黑" text-anchor="middle" font-size="13px" width="98" fill="#323232" font-weight="400" align="middle" anchor="middle" family="微软雅黑" size="13px" weight="400" font-style="" y="2.55" transform="rotate(0)"><tspan id="SvgjsTspan1018" dy="16" x="68"><tspan id="SvgjsTspan1019" style="text-decoration:;">M1=1&amp;&amp;M2=0</tspan></tspan></text></g></g><g id="SvgjsG1020" transform="translate(283.71875,335)"><path id="SvgjsPath1021" d="M 0 0L 95 0L 95 31L 0 31Z" stroke="#323232" stroke-width="2" fill-opacity="1" fill="#ffffff"></path><g id="SvgjsG1022"><text id="SvgjsText1023" font-family="微软雅黑" text-anchor="middle" font-size="13px" width="72" fill="#323232" font-weight="400" align="middle" anchor="middle" family="微软雅黑" size="13px" weight="400" font-style="" y="5.55" transform="rotate(0)"><tspan id="SvgjsTspan1024" dy="16" x="47.5"><tspan id="SvgjsTspan1025" style="text-decoration:;">判断:SQ1=1</tspan></tspan></text></g></g><g id="SvgjsG1026"><path id="SvgjsPath1027" d="M283.71875 350.5L198.21875 350.5L198.21875 229.5L263.21875 229.5" stroke="#323232" stroke-width="2" fill="none" marker-end="url(#SvgjsMarker1028)"></path><rect id="SvgjsRect1030" width="13" height="16" x="191.71875" y="292.25" fill="#ffffff"></rect><text id="SvgjsText1031" font-family="微软雅黑" text-anchor="middle" font-size="13px" width="13" fill="#323232" font-weight="400" align="top" anchor="middle" family="微软雅黑" size="13px" weight="400" font-style="" y="290.3" transform="rotate(0)"><tspan id="SvgjsTspan1032" dy="16" x="198.21875"><tspan id="SvgjsTspan1033" style="text-decoration:;">否</tspan></tspan></text></g><g id="SvgjsG1034" transform="translate(234.46875,405)"><path id="SvgjsPath1035" d="M 0 0L 193.5 0L 193.5 20L 0 20Z" stroke="#323232" stroke-width="2" fill-opacity="1" fill="#ffffff"></path><g id="SvgjsG1036"><text id="SvgjsText1037" font-family="微软雅黑" text-anchor="middle" font-size="13px" width="98" fill="#323232" font-weight="400" align="middle" anchor="middle" family="微软雅黑" size="13px" weight="400" font-style="" y="0.050000000000000044" transform="rotate(0)"><tspan id="SvgjsTspan1038" dy="16" x="97"><tspan id="SvgjsTspan1039" style="text-decoration:;">M1=0&amp;&amp;M2=1</tspan></tspan></text></g></g><g id="SvgjsG1040"><path id="SvgjsPath1041" d="M331.21875 366L331.21875 385.5L331.21875 385.5L331.21875 405" stroke="#323232" stroke-width="2" fill="none" marker-end="url(#SvgjsMarker1042)"></path><rect id="SvgjsRect1044" width="13" height="16" x="324.71875" y="377.5" fill="#ffffff"></rect><text id="SvgjsText1045" font-family="微软雅黑" text-anchor="middle" font-size="13px" width="13" fill="#323232" font-weight="400" align="top" anchor="middle" family="微软雅黑" size="13px" weight="400" font-style="" y="375.55" transform="rotate(0)"><tspan id="SvgjsTspan1046" dy="16" x="331.21875"><tspan id="SvgjsTspan1047" style="text-decoration:;">是</tspan></tspan></text></g><g id="SvgjsG1048" transform="translate(272.71875,526)"><path id="SvgjsPath1049" d="M 0 0L 117 0L 117 30L 0 30Z" stroke="#323232" stroke-width="2" fill-opacity="1" fill="#ffffff"></path><g id="SvgjsG1050"><text id="SvgjsText1051" font-family="微软雅黑" text-anchor="middle" font-size="13px" width="72" fill="#323232" font-weight="400" align="middle" anchor="middle" family="微软雅黑" size="13px" weight="400" font-style="" y="5.05" transform="rotate(0)"><tspan id="SvgjsTspan1052" dy="16" x="58.5"><tspan id="SvgjsTspan1053" style="text-decoration:;">判断:SQ2=1</tspan></tspan></text></g></g><g id="SvgjsG1054"><path id="SvgjsPath1055" d="M272.71875 541L200.46875 541L200.46875 415L234.46875 415" stroke="#323232" stroke-width="2" fill="none" marker-end="url(#SvgjsMarker1056)"></path><rect id="SvgjsRect1058" width="13" height="16" x="193.96875" y="489.125" fill="#ffffff"></rect><text id="SvgjsText1059" font-family="微软雅黑" text-anchor="middle" font-size="13px" width="13" fill="#323232" font-weight="400" align="top" anchor="middle" family="微软雅黑" size="13px" weight="400" font-style="" y="487.175" transform="rotate(0)"><tspan id="SvgjsTspan1060" dy="16" x="200.46875"><tspan id="SvgjsTspan1061" style="text-decoration:;">否</tspan></tspan></text></g><g id="SvgjsG1062" transform="translate(227.21875,610)"><path id="SvgjsPath1063" d="M 0 0L 208 0L 208 22L 0 22Z" stroke="#323232" stroke-width="2" fill-opacity="1" fill="#ffffff"></path><g id="SvgjsG1064"><text id="SvgjsText1065" font-family="微软雅黑" text-anchor="middle" font-size="13px" width="103" fill="#323232" font-weight="400" align="middle" anchor="middle" family="微软雅黑" size="13px" weight="400" font-style="" y="1.05" transform="rotate(0)"><tspan id="SvgjsTspan1066" dy="16" x="104"><tspan id="SvgjsTspan1067" style="text-decoration:;">M1=0&amp;&amp;M2=-1</tspan></tspan></text></g></g><g id="SvgjsG1068"><path id="SvgjsPath1069" d="M331.21875 556L331.21875 583L331.21875 583L331.21875 610" stroke="#323232" stroke-width="2" fill="none" marker-end="url(#SvgjsMarker1070)"></path><rect id="SvgjsRect1072" width="13" height="16" x="324.71875" y="575" fill="#ffffff"></rect><text id="SvgjsText1073" font-family="微软雅黑" text-anchor="middle" font-size="13px" width="13" fill="#323232" font-weight="400" align="top" anchor="middle" family="微软雅黑" size="13px" weight="400" font-style="" y="573.05" transform="rotate(0)"><tspan id="SvgjsTspan1074" dy="16" x="331.21875"><tspan id="SvgjsTspan1075" style="text-decoration:;">是</tspan></tspan></text></g><g id="SvgjsG1076" transform="translate(272.71875,733)"><path id="SvgjsPath1077" d="M 0 0L 117 0L 117 30L 0 30Z" stroke="#323232" stroke-width="2" fill-opacity="1" fill="#ffffff"></path><g id="SvgjsG1078"><text id="SvgjsText1079" font-family="微软雅黑" text-anchor="middle" font-size="13px" width="72" fill="#323232" font-weight="400" align="middle" anchor="middle" family="微软雅黑" size="13px" weight="400" font-style="" y="5.05" transform="rotate(0)"><tspan id="SvgjsTspan1080" dy="16" x="58.5"><tspan id="SvgjsTspan1081" style="text-decoration:;">判断:SQ3=1</tspan></tspan></text></g></g><g id="SvgjsG1082"><path id="SvgjsPath1083" d="M272.71875 748L197.21875 748L197.21875 621L227.21875 621" stroke="#323232" stroke-width="2" fill="none" marker-end="url(#SvgjsMarker1084)"></path><rect id="SvgjsRect1086" width="13" height="16" x="190.71875" y="699.25" fill="#ffffff"></rect><text id="SvgjsText1087" font-family="微软雅黑" text-anchor="middle" font-size="13px" width="13" fill="#323232" font-weight="400" align="top" anchor="middle" family="微软雅黑" size="13px" weight="400" font-style="" y="697.3" transform="rotate(0)"><tspan id="SvgjsTspan1088" dy="16" x="197.21875"><tspan id="SvgjsTspan1089" style="text-decoration:;">否</tspan></tspan></text></g><g id="SvgjsG1090" transform="translate(260.21875,822)"><path id="SvgjsPath1091" d="M 0 0L 142 0L 142 20L 0 20Z" stroke="#323232" stroke-width="2" fill-opacity="1" fill="#ffffff"></path><g id="SvgjsG1092"><text id="SvgjsText1093" font-family="微软雅黑" text-anchor="middle" font-size="13px" width="103" fill="#323232" font-weight="400" align="middle" anchor="middle" family="微软雅黑" size="13px" weight="400" font-style="" y="0.050000000000000044" transform="rotate(0)"><tspan id="SvgjsTspan1094" dy="16" x="71"><tspan id="SvgjsTspan1095" style="text-decoration:;">M2=0&amp;&amp;M1=-1</tspan></tspan></text></g></g><g id="SvgjsG1096"><path id="SvgjsPath1097" d="M331.21875 763L331.21875 792.5L331.21875 792.5L331.21875 822" stroke="#323232" stroke-width="2" fill="none" marker-end="url(#SvgjsMarker1098)"></path><rect id="SvgjsRect1100" width="13" height="16" x="324.71875" y="784.5" fill="#ffffff"></rect><text id="SvgjsText1101" font-family="微软雅黑" text-anchor="middle" font-size="13px" width="13" fill="#323232" font-weight="400" align="top" anchor="middle" family="微软雅黑" size="13px" weight="400" font-style="" y="782.55" transform="rotate(0)"><tspan id="SvgjsTspan1102" dy="16" x="331.21875"><tspan id="SvgjsTspan1103" style="text-decoration:;">是</tspan></tspan></text></g><g id="SvgjsG1104" transform="translate(259.09375,945)"><path id="SvgjsPath1105" d="M 0 0L 144.25 0L 144.25 24L 0 24Z" stroke="#323232" stroke-width="2" fill-opacity="1" fill="#ffffff"></path><g id="SvgjsG1106"><text id="SvgjsText1107" font-family="微软雅黑" text-anchor="middle" font-size="13px" width="85" fill="#323232" font-weight="400" align="middle" anchor="middle" family="微软雅黑" size="13px" weight="400" font-style="" y="2.05" transform="rotate(0)"><tspan id="SvgjsTspan1108" dy="16" x="72.5"><tspan id="SvgjsTspan1109" style="text-decoration:;">判断:炉SQ4</tspan><tspan id="SvgjsTspan1110" style="text-decoration:;font-size: inherit;">=1</tspan></tspan></text></g></g><g id="SvgjsG1111"><path id="SvgjsPath1112" d="M259.09375 957L201.09375 957L201.09375 832L260.21875 832" stroke="#323232" stroke-width="2" fill="none" marker-end="url(#SvgjsMarker1113)"></path><rect id="SvgjsRect1115" width="13" height="16" x="194.59375" y="885.9375" fill="#ffffff"></rect><text id="SvgjsText1116" font-family="微软雅黑" text-anchor="middle" font-size="13px" width="13" fill="#323232" font-weight="400" align="top" anchor="middle" family="微软雅黑" size="13px" weight="400" font-style="" y="883.9875" transform="rotate(0)"><tspan id="SvgjsTspan1117" dy="16" x="201.09375"><tspan id="SvgjsTspan1118" style="text-decoration:;">否</tspan></tspan></text></g><g id="SvgjsG1119" transform="translate(243.59375,1096)"><path id="SvgjsPath1120" d="M 0 0L 175.25 0L 175.25 25L 0 25Z" stroke="#323232" stroke-width="2" fill-opacity="1" fill="#ffffff"></path><g id="SvgjsG1121"><text id="SvgjsText1122" font-family="微软雅黑" text-anchor="middle" font-size="13px" width="138" fill="#323232" font-weight="400" align="middle" anchor="middle" family="微软雅黑" size="13px" weight="400" font-style="" y="2.55" transform="rotate(0)"><tspan id="SvgjsTspan1123" dy="16" x="88"><tspan id="SvgjsTspan1124" style="text-decoration:;">判断:启动=0&amp;&amp;停止=0</tspan></tspan></text></g></g><g id="SvgjsG1125" transform="translate(260.21875,1030)"><path id="SvgjsPath1126" d="M 0 0L 142 0L 142 20L 0 20Z" stroke="#323232" stroke-width="2" fill-opacity="1" fill="#ffffff"></path><g id="SvgjsG1127"><text id="SvgjsText1128" font-family="微软雅黑" text-anchor="middle" font-size="13px" width="98" fill="#323232" font-weight="400" align="middle" anchor="middle" family="微软雅黑" size="13px" weight="400" font-style="" y="0.050000000000000044" transform="rotate(0)"><tspan id="SvgjsTspan1129" dy="16" x="71"><tspan id="SvgjsTspan1130" style="text-decoration:;">M2=0&amp;&amp;M1=0</tspan></tspan></text></g></g><g id="SvgjsG1131"><path id="SvgjsPath1132" d="M331.21875 969L331.21875 999.5L331.21875 999.5L331.21875 1030" stroke="#323232" stroke-width="2" fill="none" marker-end="url(#SvgjsMarker1133)"></path><rect id="SvgjsRect1135" width="13" height="16" x="324.71875" y="991.5" fill="#ffffff"></rect><text id="SvgjsText1136" font-family="微软雅黑" text-anchor="middle" font-size="13px" width="13" fill="#323232" font-weight="400" align="top" anchor="middle" family="微软雅黑" size="13px" weight="400" font-style="" y="989.55" transform="rotate(0)"><tspan id="SvgjsTspan1137" dy="16" x="331.21875"><tspan id="SvgjsTspan1138" style="text-decoration:;">是</tspan></tspan></text></g><g id="SvgjsG1139"><path id="SvgjsPath1140" d="M331.21875 1050L331.21875 1073L331.21875 1073L331.21875 1096" stroke="#323232" stroke-width="2" fill="none" marker-end="url(#SvgjsMarker1141)"></path></g><g id="SvgjsG1143" transform="translate(281.46875,142)"><path id="SvgjsPath1144" d="M 0 0L 99.5 0L 99.5 28L 0 28Z" stroke="#323232" stroke-width="2" fill-opacity="1" fill="#ffffff"></path><g id="SvgjsG1145"><text id="SvgjsText1146" font-family="微软雅黑" text-anchor="middle" font-size="13px" width="72" fill="#323232" font-weight="400" align="middle" anchor="middle" family="微软雅黑" size="13px" weight="400" font-style="" y="4.05" transform="rotate(0)"><tspan id="SvgjsTspan1147" dy="16" x="50"><tspan id="SvgjsTspan1148" style="text-decoration:;">判断:停止=1</tspan></tspan></text></g></g><g id="SvgjsG1149"><path id="SvgjsPath1150" d="M331.21875 170L331.21875 193.5L331.21875 193.5L331.21875 217" stroke="#323232" stroke-width="2" fill="none" marker-end="url(#SvgjsMarker1151)"></path><rect id="SvgjsRect1153" width="13" height="16" x="324.71875" y="185.5" fill="#ffffff"></rect><text id="SvgjsText1154" font-family="微软雅黑" text-anchor="middle" font-size="13px" width="13" fill="#323232" font-weight="400" align="top" anchor="middle" family="微软雅黑" size="13px" weight="400" font-style="" y="183.55" transform="rotate(0)"><tspan id="SvgjsTspan1155" dy="16" x="331.21875"><tspan id="SvgjsTspan1156" style="text-decoration:;">否</tspan></tspan></text></g><g id="SvgjsG1157" transform="translate(281.46875,269)"><path id="SvgjsPath1158" d="M 0 0L 99.5 0L 99.5 28L 0 28Z" stroke="#323232" stroke-width="2" fill-opacity="1" fill="#ffffff"></path><g id="SvgjsG1159"><text id="SvgjsText1160" font-family="微软雅黑" text-anchor="middle" font-size="13px" width="72" fill="#323232" font-weight="400" align="middle" anchor="middle" family="微软雅黑" size="13px" weight="400" font-style="" y="4.05" transform="rotate(0)"><tspan id="SvgjsTspan1161" dy="16" x="50"><tspan id="SvgjsTspan1162" style="text-decoration:;">判断:停止=1</tspan></tspan></text></g></g><g id="SvgjsG1163"><path id="SvgjsPath1164" d="M331.21875 242L331.21875 255.5L331.21875 255.5L331.21875 269" stroke="#323232" stroke-width="2" fill="none" marker-end="url(#SvgjsMarker1165)"></path></g><g id="SvgjsG1167"><path id="SvgjsPath1168" d="M331.21875 297L331.21875 316L331.21875 316L331.21875 335" stroke="#323232" stroke-width="2" fill="none" marker-end="url(#SvgjsMarker1169)"></path><rect id="SvgjsRect1171" width="13" height="16" x="324.71875" y="308" fill="#ffffff"></rect><text id="SvgjsText1172" font-family="微软雅黑" text-anchor="middle" font-size="13px" width="13" fill="#323232" font-weight="400" align="top" anchor="middle" family="微软雅黑" size="13px" weight="400" font-style="" y="306.05" transform="rotate(0)"><tspan id="SvgjsTspan1173" dy="16" x="331.21875"><tspan id="SvgjsTspan1174" style="text-decoration:;">否</tspan></tspan></text></g><g id="SvgjsG1175" transform="translate(281.46875,448)"><path id="SvgjsPath1176" d="M 0 0L 99.5 0L 99.5 28L 0 28Z" stroke="#323232" stroke-width="2" fill-opacity="1" fill="#ffffff"></path><g id="SvgjsG1177"><text id="SvgjsText1178" font-family="微软雅黑" text-anchor="middle" font-size="13px" width="72" fill="#323232" font-weight="400" align="middle" anchor="middle" family="微软雅黑" size="13px" weight="400" font-style="" y="4.05" transform="rotate(0)"><tspan id="SvgjsTspan1179" dy="16" x="50"><tspan id="SvgjsTspan1180" style="text-decoration:;">判断:停止=1</tspan></tspan></text></g></g><g id="SvgjsG1181"><path id="SvgjsPath1182" d="M331.21875 425L331.21875 436.5L331.21875 436.5L331.21875 448" stroke="#323232" stroke-width="2" fill="none" marker-end="url(#SvgjsMarker1183)"></path></g><g id="SvgjsG1185"><path id="SvgjsPath1186" d="M331.21875 476L331.21875 501L331.21875 501L331.21875 526" stroke="#323232" stroke-width="2" fill="none" marker-end="url(#SvgjsMarker1187)"></path><rect id="SvgjsRect1189" width="13" height="16" x="324.71875" y="493" fill="#ffffff"></rect><text id="SvgjsText1190" font-family="微软雅黑" text-anchor="middle" font-size="13px" width="13" fill="#323232" font-weight="400" align="top" anchor="middle" family="微软雅黑" size="13px" weight="400" font-style="" y="491.05" transform="rotate(0)"><tspan id="SvgjsTspan1191" dy="16" x="331.21875"><tspan id="SvgjsTspan1192" style="text-decoration:;">否</tspan></tspan></text></g><g id="SvgjsG1193"><path id="SvgjsPath1194" d="M380.96875 462L555.21875 462L555.21875 1197L402.21875 1197" stroke="#323232" stroke-width="2" fill="none" marker-end="url(#SvgjsMarker1195)"></path><rect id="SvgjsRect1197" width="13" height="16" x="548.71875" y="810.875" fill="#ffffff"></rect><text id="SvgjsText1198" font-family="微软雅黑" text-anchor="middle" font-size="13px" width="13" fill="#323232" font-weight="400" align="top" anchor="middle" family="微软雅黑" size="13px" weight="400" font-style="" y="808.925" transform="rotate(0)"><tspan id="SvgjsTspan1199" dy="16" x="555.21875"><tspan id="SvgjsTspan1200" style="text-decoration:;">是</tspan></tspan></text></g><g id="SvgjsG1201"><path id="SvgjsPath1202" d="M380.96875 283L623.21875 283L623.21875 1197L402.21875 1197" stroke="#323232" stroke-width="2" fill="none" marker-end="url(#SvgjsMarker1203)"></path><rect id="SvgjsRect1205" width="13" height="16" x="616.71875" y="721.375" fill="#ffffff"></rect><text id="SvgjsText1206" font-family="微软雅黑" text-anchor="middle" font-size="13px" width="13" fill="#323232" font-weight="400" align="top" anchor="middle" family="微软雅黑" size="13px" weight="400" font-style="" y="719.425" transform="rotate(0)"><tspan id="SvgjsTspan1207" dy="16" x="623.21875"><tspan id="SvgjsTspan1208" style="text-decoration:;">是</tspan></tspan></text></g><g id="SvgjsG1209" transform="translate(281.46875,661)"><path id="SvgjsPath1210" d="M 0 0L 99.5 0L 99.5 28L 0 28Z" stroke="#323232" stroke-width="2" fill-opacity="1" fill="#ffffff"></path><g id="SvgjsG1211"><text id="SvgjsText1212" font-family="微软雅黑" text-anchor="middle" font-size="13px" width="72" fill="#323232" font-weight="400" align="middle" anchor="middle" family="微软雅黑" size="13px" weight="400" font-style="" y="4.05" transform="rotate(0)"><tspan id="SvgjsTspan1213" dy="16" x="50"><tspan id="SvgjsTspan1214" style="text-decoration:;">判断:停止=1</tspan></tspan></text></g></g><g id="SvgjsG1215"><path id="SvgjsPath1216" d="M331.21875 632L331.21875 646.5L331.21875 646.5L331.21875 661" stroke="#323232" stroke-width="2" fill="none" marker-end="url(#SvgjsMarker1217)"></path></g><g id="SvgjsG1219"><path id="SvgjsPath1220" d="M331.21875 689L331.21875 711L331.21875 711L331.21875 733" stroke="#323232" stroke-width="2" fill="none" marker-end="url(#SvgjsMarker1221)"></path><rect id="SvgjsRect1223" width="13" height="16" x="324.71875" y="703" fill="#ffffff"></rect><text id="SvgjsText1224" font-family="微软雅黑" text-anchor="middle" font-size="13px" width="13" fill="#323232" font-weight="400" align="top" anchor="middle" family="微软雅黑" size="13px" weight="400" font-style="" y="701.05" transform="rotate(0)"><tspan id="SvgjsTspan1225" dy="16" x="331.21875"><tspan id="SvgjsTspan1226" style="text-decoration:;">否</tspan></tspan></text></g><g id="SvgjsG1227" transform="translate(281.46875,879)"><path id="SvgjsPath1228" d="M 0 0L 99.5 0L 99.5 28L 0 28Z" stroke="#323232" stroke-width="2" fill-opacity="1" fill="#ffffff"></path><g id="SvgjsG1229"><text id="SvgjsText1230" font-family="微软雅黑" text-anchor="middle" font-size="13px" width="72" fill="#323232" font-weight="400" align="middle" anchor="middle" family="微软雅黑" size="13px" weight="400" font-style="" y="4.05" transform="rotate(0)"><tspan id="SvgjsTspan1231" dy="16" x="50"><tspan id="SvgjsTspan1232" style="text-decoration:;">判断:停止=1</tspan></tspan></text></g></g><g id="SvgjsG1233"><path id="SvgjsPath1234" d="M331.21875 842L331.21875 860.5L331.21875 860.5L331.21875 879" stroke="#323232" stroke-width="2" fill="none" marker-end="url(#SvgjsMarker1235)"></path></g><g id="SvgjsG1237"><path id="SvgjsPath1238" d="M331.21875 907L331.21875 926L331.21875 926L331.21875 945" stroke="#323232" stroke-width="2" fill="none" marker-end="url(#SvgjsMarker1239)"></path><rect id="SvgjsRect1241" width="13" height="16" x="324.71875" y="918" fill="#ffffff"></rect><text id="SvgjsText1242" font-family="微软雅黑" text-anchor="middle" font-size="13px" width="13" fill="#323232" font-weight="400" align="top" anchor="middle" family="微软雅黑" size="13px" weight="400" font-style="" y="916.05" transform="rotate(0)"><tspan id="SvgjsTspan1243" dy="16" x="331.21875"><tspan id="SvgjsTspan1244" style="text-decoration:;">否</tspan></tspan></text></g><g id="SvgjsG1245"><path id="SvgjsPath1246" d="M380.96875 893L432.21875 893L432.21875 1197L402.21875 1197" stroke="#323232" stroke-width="2" fill="none" marker-end="url(#SvgjsMarker1247)"></path><rect id="SvgjsRect1249" width="13" height="16" x="425.71875" y="1026.375" fill="#ffffff"></rect><text id="SvgjsText1250" font-family="微软雅黑" text-anchor="middle" font-size="13px" width="13" fill="#323232" font-weight="400" align="top" anchor="middle" family="微软雅黑" size="13px" weight="400" font-style="" y="1024.425" transform="rotate(0)"><tspan id="SvgjsTspan1251" dy="16" x="432.21875"><tspan id="SvgjsTspan1252" style="text-decoration:;">是</tspan></tspan></text></g><g id="SvgjsG1253"><path id="SvgjsPath1254" d="M380.96875 675L496.21875 675L496.21875 1197L402.21875 1197" stroke="#323232" stroke-width="2" fill="none" marker-end="url(#SvgjsMarker1255)"></path><rect id="SvgjsRect1257" width="13" height="16" x="489.71875" y="917.375" fill="#ffffff"></rect><text id="SvgjsText1258" font-family="微软雅黑" text-anchor="middle" font-size="13px" width="13" fill="#323232" font-weight="400" align="top" anchor="middle" family="微软雅黑" size="13px" weight="400" font-style="" y="915.425" transform="rotate(0)"><tspan id="SvgjsTspan1259" dy="16" x="496.21875"><tspan id="SvgjsTspan1260" style="text-decoration:;">是</tspan></tspan></text></g><g id="SvgjsG1261"><path id="SvgjsPath1262" d="M380.96875 156L685.21875 156L685.21875 1197L402.21875 1197" stroke="#323232" stroke-width="2" fill="none" marker-end="url(#SvgjsMarker1263)"></path><rect id="SvgjsRect1265" width="13" height="16" x="678.71875" y="657.875" fill="#ffffff"></rect><text id="SvgjsText1266" font-family="微软雅黑" text-anchor="middle" font-size="13px" width="13" fill="#323232" font-weight="400" align="top" anchor="middle" family="微软雅黑" size="13px" weight="400" font-style="" y="655.925" transform="rotate(0)"><tspan id="SvgjsTspan1267" dy="16" x="685.21875"><tspan id="SvgjsTspan1268" style="text-decoration:;">是</tspan></tspan></text></g><g id="SvgjsG1269"><path id="SvgjsPath1270" d="M331.21875 75L331.21875 108.5L331.21875 108.5L331.21875 142" stroke="#323232" stroke-width="2" fill="none" marker-end="url(#SvgjsMarker1271)"></path><rect id="SvgjsRect1273" width="13" height="16" x="324.71875" y="100.5" fill="#ffffff"></rect><text id="SvgjsText1274" font-family="微软雅黑" text-anchor="middle" font-size="13px" width="13" fill="#323232" font-weight="400" align="top" anchor="middle" family="微软雅黑" size="13px" weight="400" font-style="" y="98.55" transform="rotate(0)"><tspan id="SvgjsTspan1275" dy="16" x="331.21875"><tspan id="SvgjsTspan1276" style="text-decoration:;">是</tspan></tspan></text></g><g id="SvgjsG1277"><path id="SvgjsPath1278" d="M243.59375 1108.5L122.59375 1108.5L122.59375 156L281.46875 156" stroke="#323232" stroke-width="2" fill="none" marker-end="url(#SvgjsMarker1279)"></path><rect id="SvgjsRect1281" width="13" height="16" x="116.09375" y="605.3125" fill="#ffffff"></rect><text id="SvgjsText1282" font-family="微软雅黑" text-anchor="middle" font-size="13px" width="13" fill="#323232" font-weight="400" align="top" anchor="middle" family="微软雅黑" size="13px" weight="400" font-style="" y="603.3625" transform="rotate(0)"><tspan id="SvgjsTspan1283" dy="16" x="122.59375"><tspan id="SvgjsTspan1284" style="text-decoration:;">是</tspan></tspan></text></g><g id="SvgjsG1285" transform="translate(260.21875,1187)"><path id="SvgjsPath1286" d="M 0 0L 142 0L 142 20L 0 20Z" stroke="#323232" stroke-width="2" fill-opacity="1" fill="#ffffff"></path><g id="SvgjsG1287"><text id="SvgjsText1288" font-family="微软雅黑" text-anchor="middle" font-size="13px" width="98" fill="#323232" font-weight="400" align="middle" anchor="middle" family="微软雅黑" size="13px" weight="400" font-style="" y="0.050000000000000044" transform="rotate(0)"><tspan id="SvgjsTspan1289" dy="16" x="71"><tspan id="SvgjsTspan1290" style="text-decoration:;">M2=0&amp;&amp;M1=0</tspan></tspan></text></g></g><g id="SvgjsG1291"><path id="SvgjsPath1292" d="M260.21875 1197L25.01171875 1197L25.01171875 65L243.01171875 65" stroke="#323232" stroke-width="2" fill="none" marker-end="url(#SvgjsMarker1293)"></path></g><g id="SvgjsG1295"><path id="SvgjsPath1296" d="M419.42578125 65L449.42578125 65L449.42578125 25L331.21875 25L331.21875 55" stroke="#323232" stroke-width="2" fill="none" marker-end="url(#SvgjsMarker1297)"></path><rect id="SvgjsRect1299" width="13" height="16" x="403.822265625" y="17" fill="#ffffff"></rect><text id="SvgjsText1300" font-family="微软雅黑" text-anchor="middle" font-size="13px" width="13" fill="#323232" font-weight="400" align="top" anchor="middle" family="微软雅黑" size="13px" weight="400" font-style="" y="15.05" transform="rotate(0)"><tspan id="SvgjsTspan1301" dy="16" x="410.322265625"><tspan id="SvgjsTspan1302" style="text-decoration:;">否</tspan></tspan></text></g></svg>